<svg width="100" height="100" viewBox="0 0 100 100" fill="none" xmlns="http://www.w3.org/2000/svg">
    <path d="M10 30C10 15 20 10 30 10C40 10 45 20 45 30C45 40 35 45 25 45C15 45 10 40 10 30Z" fill="currentColor" fill-opacity="0.03"/>
    <path d="M60 70C60 55 70 50 80 50C90 50 95 60 95 70C95 80 85 85 75 85C65 85 60 80 60 70Z" fill="currentColor" fill-opacity="0.03"/>
    <path d="M0 80C0 65 10 60 20 60C30 60 35 70 35 80C35 90 25 95 15 95C5 95 0 90 0 80Z" fill="currentColor" fill-opacity="0.03"/>
</svg> 