<svg width="24" height="24" viewBox="0 0 24 24" fill="none" xmlns="http://www.w3.org/2000/svg">
    <path d="M12 2C6.47715 2 2 6.47715 2 12C2 17.5228 6.47715 22 12 22C17.5228 22 22 17.5228 22 12C22 6.47715 17.5228 2 12 2ZM16.5917 16.5917C16.4467 16.7367 16.2517 16.8167 16.0567 16.8167C15.8617 16.8167 15.6667 16.7367 15.5217 16.5917C13.9047 14.9737 11.7157 14.0907 9.37575 14.0907C8.05375 14.0907 6.75975 14.3477 5.54175 14.8537C5.18675 14.9987 4.79175 14.8217 4.64675 14.4657C4.50175 14.1107 4.67775 13.7157 5.03375 13.5707C6.41775 13.0007 7.88375 12.7107 9.37575 12.7107C12.0337 12.7107 14.5257 13.7157 16.3647 15.5547C16.6557 15.8457 16.6557 16.3007 16.5917 16.5917ZM17.8397 13.9687C17.6947 14.1137 17.4997 14.1937 17.3037 14.1937C17.1087 14.1937 16.9137 14.1137 16.7687 13.9687C14.8127 12.0137 12.1587 10.9447 9.31175 10.9447C7.73775 10.9447 6.19975 11.2677 4.75175 11.8997C4.39675 12.0447 3.99975 11.8677 3.85575 11.5117C3.71075 11.1567 3.88775 10.7617 4.24275 10.6167C5.85575 9.92075 7.56975 9.56575 9.31175 9.56575C12.5087 9.56575 15.4997 10.7617 17.7127 12.9747C18.0037 13.2657 18.0037 13.7207 17.8397 13.9687ZM19.1517 11.0907C19.0067 11.2357 18.8117 11.3157 18.6167 11.3157C18.4217 11.3157 18.2267 11.2357 18.0817 11.0907C15.7737 8.78275 12.6367 7.52075 9.31175 7.52075C7.47775 7.52075 5.68075 7.88675 3.97875 8.61875C3.62375 8.76375 3.22675 8.58675 3.08175 8.23175C2.93675 7.87675 3.11375 7.47975 3.46875 7.33475C5.35175 6.53875 7.31775 6.13075 9.31175 6.13075C12.9857 6.13075 16.4617 7.52075 19.0247 10.0837C19.3157 10.3747 19.3157 10.8297 19.1517 11.0907Z" fill="currentColor"/>
</svg> 