<svg width="24" height="24" viewBox="0 0 24 24" fill="none" xmlns="http://www.w3.org/2000/svg">
    <path d="M12 2C6.48 2 2 6.48 2 12C2 17.52 6.48 22 12 22C17.52 22 22 17.52 22 12C22 6.48 17.52 2 12 2ZM12 6.5C14.48 6.5 16.5 8.52 16.5 11V14.5C16.5 15.88 15.38 17 14 17H13V18.5C13 19.33 12.33 20 11.5 20C10.67 20 10 19.33 10 18.5V17H9C7.62 17 6.5 15.88 6.5 14.5V11C6.5 8.52 8.52 6.5 11 6.5H12ZM12 8.5C10.62 8.5 9.5 9.62 9.5 11V13C9.5 14.38 10.62 15.5 12 15.5C13.38 15.5 14.5 14.38 14.5 13V11C14.5 9.62 13.38 8.5 12 8.5Z" fill="currentColor"/>
</svg> 