<svg width="24" height="24" viewBox="0 0 24 24" fill="none" xmlns="http://www.w3.org/2000/svg">
    <path d="M12 2C7.58172 2 4 5.58172 4 10C4 12.9087 5.55266 15.4561 7.89443 16.8841C8.51173 17.2728 8.89819 17.9329 8.98686 18.6569L9.33333 21.3333C9.35803 21.4873 9.43014 21.6284 9.54014 21.7384C9.65014 21.8484 9.79121 21.9205 9.94521 21.9452L10.6667 22.0952V22.6667C10.6667 22.8435 10.7369 23.0131 10.8619 23.1381C10.9869 23.2631 11.1565 23.3333 11.3333 23.3333H12.6667C12.8435 23.3333 13.0131 23.2631 13.1381 23.1381C13.2631 23.0131 13.3333 22.8435 13.3333 22.6667V22.0952L14.0548 21.9452C14.2088 21.9205 14.3499 21.8484 14.4599 21.7384C14.5699 21.6284 14.642 21.4873 14.6667 21.3333L15.0131 18.6569C15.1018 17.9329 15.4883 17.2728 16.1056 16.8841C18.4473 15.4561 20 12.9087 20 10C20 5.58172 16.4183 2 12 2ZM9.33333 19.3333L9.33333 20H14.6667L14.6667 19.3333H9.33333ZM12 16C11.2928 16 10.6145 15.7947 10.0741 15.4101C9.53373 15.0256 9.15914 14.4789 9.00553 13.8656C8.85191 13.2522 8.92838 12.6041 9.22477 12.0307C9.52116 11.4573 10.0209 10.9896 10.6222 10.7334C10.5404 10.4994 10.4989 10.2509 10.4999 10C10.4999 9.46957 10.7106 8.96086 11.0857 8.58579C11.4607 8.21071 11.9695 8 12.4999 8C13.0303 8 13.5391 8.21071 13.9141 8.58579C14.2892 8.96086 14.4999 9.46957 14.4999 10C14.5009 10.2509 14.4594 10.4994 14.3776 10.7334C14.9789 10.9896 15.4786 11.4573 15.775 12.0307C16.0714 12.6041 16.1479 13.2522 15.9943 13.8656C15.8407 14.4789 15.4661 15.0256 14.9257 15.4101C14.3853 15.7947 13.707 16 12.9998 16H12Z" fill="currentColor"/>
</svg> 